<svg width="20" height="20" viewBox="0 0 20 20" fill="none" xmlns="http://www.w3.org/2000/svg">
<path fill-rule="evenodd" clip-rule="evenodd" d="M5.293 5.293C5.48053 5.10553 5.73484 5.00021 6 5.00021C6.26516 5.00021 6.51947 5.10553 6.707 5.293L10 8.586L13.293 5.293C13.3852 5.19749 13.4956 5.12131 13.6176 5.0689C13.7396 5.01649 13.8708 4.9889 14.0036 4.98775C14.1364 4.9866 14.2681 5.0119 14.391 5.06218C14.5139 5.11246 14.6255 5.18671 14.7194 5.2806C14.8133 5.3745 14.8875 5.48615 14.9378 5.60905C14.9881 5.73194 15.0134 5.86362 15.0123 5.9964C15.0111 6.12918 14.9835 6.2604 14.9311 6.3824C14.8787 6.50441 14.8025 6.61475 14.707 6.707L11.414 10L14.707 13.293C14.8892 13.4816 14.99 13.7342 14.9877 13.9964C14.9854 14.2586 14.8802 14.5094 14.6948 14.6948C14.5094 14.8802 14.2586 14.9854 13.9964 14.9877C13.7342 14.99 13.4816 14.8892 13.293 14.707L10 11.414L6.707 14.707C6.5184 14.8892 6.2658 14.99 6.0036 14.9877C5.7414 14.9854 5.49059 14.8802 5.30518 14.6948C5.11977 14.5094 5.0146 14.2586 5.01233 13.9964C5.01005 13.7342 5.11084 13.4816 5.293 13.293L8.586 10L5.293 6.707C5.10553 6.51947 5.00021 6.26516 5.00021 6C5.00021 5.73484 5.10553 5.48053 5.293 5.293Z" fill="current"/>
</svg>
