<svg width="34" height="34" viewBox="0 0 34 34" fill="none" xmlns="http://www.w3.org/2000/svg">
<g filter="url(#filter0_d_834_6972)">
<path d="M1 17C1 8.16344 8.16344 1 17 1C25.8366 1 33 8.16344 33 17C33 25.8366 25.8366 33 17 33C8.16344 33 1 25.8366 1 17Z" fill="#1E293B"/>
<path fill-rule="evenodd" clip-rule="evenodd" d="M9.92893 9.92894C6.02369 13.8342 6.02369 20.1658 9.92893 24.0711C13.8342 27.9763 20.1658 27.9763 24.0711 24.0711C27.9763 20.1658 27.9763 13.8342 24.0711 9.92894C20.1658 6.0237 13.8342 6.0237 9.92893 9.92894ZM18.0686 19.0493C18.0686 19.1598 17.9791 19.2493 17.8686 19.2493H15.5235C15.4131 19.2493 15.3235 19.1598 15.3235 19.0493V16.4752C15.3235 16.3676 15.4086 16.2796 15.516 16.2738C17.4471 16.1697 18.4216 15.6166 18.4216 14.2271V13.9557C18.4216 12.9668 17.7745 12.4432 16.8333 12.4432C15.8953 12.4432 15.2394 13.034 14.9573 13.8684C14.9181 13.9842 14.7905 14.0494 14.6775 14.0027L12.6657 13.171C12.5714 13.132 12.5211 13.0282 12.5533 12.9314C13.0494 11.4392 14.3628 10 16.9314 10C19.6765 10 21.5 11.6288 21.5 13.9945C21.5 16.0998 20.0074 17.4762 18.2369 17.8234C18.1404 17.8424 18.0686 17.9257 18.0686 18.0241V19.0493ZM18.4804 22.5263C18.4804 23.3601 17.9706 24 16.7353 24C15.5 24 14.9902 23.3601 14.9902 22.5263V22.0609C14.9902 21.2271 15.5 20.5873 16.7353 20.5873C17.9706 20.5873 18.4804 21.2271 18.4804 22.0609V22.5263Z" fill="#64748B"/>
</g>
<defs>
<filter id="filter0_d_834_6972" x="0" y="0" width="34" height="34" filterUnits="userSpaceOnUse" color-interpolation-filters="sRGB">
<feFlood flood-opacity="0" result="BackgroundImageFix"/>
<feColorMatrix in="SourceAlpha" type="matrix" values="0 0 0 0 0 0 0 0 0 0 0 0 0 0 0 0 0 0 127 0" result="hardAlpha"/>
<feMorphology radius="1" operator="dilate" in="SourceAlpha" result="effect1_dropShadow_834_6972"/>
<feOffset/>
<feComposite in2="hardAlpha" operator="out"/>
<feColorMatrix type="matrix" values="0 0 0 0 0.2 0 0 0 0 0.254902 0 0 0 0 0.333333 0 0 0 1 0"/>
<feBlend mode="normal" in2="BackgroundImageFix" result="effect1_dropShadow_834_6972"/>
<feBlend mode="normal" in="SourceGraphic" in2="effect1_dropShadow_834_6972" result="shape"/>
</filter>
</defs>
</svg>
