<svg width="20" height="20" viewBox="0 0 20 20" fill="none" xmlns="http://www.w3.org/2000/svg">
<path fill-rule="evenodd" clip-rule="evenodd" d="M16.707 5.293C16.8945 5.48053 16.9998 5.73484 16.9998 6C16.9998 6.26516 16.8945 6.51947 16.707 6.707L8.707 14.707C8.51947 14.8945 8.26516 14.9998 8 14.9998C7.73483 14.9998 7.48052 14.8945 7.293 14.707L3.293 10.707C3.11084 10.5184 3.01004 10.2658 3.01232 10.0036C3.0146 9.7414 3.11977 9.49059 3.30518 9.30518C3.49058 9.11977 3.7414 9.0146 4.00359 9.01233C4.26579 9.01005 4.51839 9.11084 4.70699 9.293L8 12.586L15.293 5.293C15.4805 5.10553 15.7348 5.00021 16 5.00021C16.2652 5.00021 16.5195 5.10553 16.707 5.293Z" fill="#ECFDF5"/>
</svg>
